<svg id="Layer_1" data-name="Layer 1" xmlns="http://www.w3.org/2000/svg" xmlns:xlink="http://www.w3.org/1999/xlink" viewBox="0 0 434.8916 100.0157"><defs><linearGradient id="linear-gradient" x1="50.0032" y1="100.0131" x2="50.0032" y2="-0.0027" gradientTransform="matrix(1, 0, 0, -1, 0, 100.0131)" gradientUnits="userSpaceOnUse"><stop offset="0" stop-color="#528ba3" stop-opacity="0"/><stop offset="1" stop-color="#528ba3"/></linearGradient><linearGradient id="linear-gradient-2" x1="68.9462" y1="-0.0005" x2="68.9462" y2="100.0065" xlink:href="#linear-gradient"/></defs><title>logo4</title><path d="M68.9414,18.9414a31.0339,31.0339,0,0,0-9.4674,1.4744A31.0665,31.0665,0,1,1,18.9414,50.0065,50.0075,50.0075,0,0,1,59.474.9135a49.9985,49.9985,0,1,0,40.5325,49.093A31.0651,31.0651,0,0,0,68.9414,18.9414Z" fill="url(#linear-gradient)"/><path d="M68.9414.0065a50,50,0,0,0-50,50A31.0744,31.0744,0,0,0,59.474,79.5972a31.0665,31.0665,0,1,1,40.5325-29.5907A50.0073,50.0073,0,0,1,59.474,99.1,49.9989,49.9989,0,1,0,68.9414.0065Z" fill="url(#linear-gradient-2)"/><path d="M142.1387,68.9675V31.0455h13.71a13.8108,13.8108,0,0,1,9.5866,3.3375,11.3841,11.3841,0,0,1,3.4519,8.4417,11.5946,11.5946,0,0,1-2.061,6.8546A11.3147,11.3147,0,0,1,161.1328,53.9l9.1447,15.0674h-7.59l-8.18-14.233h-6.0367v14.233ZM148.47,49.123h6.5275a8.4029,8.4029,0,0,0,5.4964-1.62,5.5969,5.5969,0,0,0,1.9631-4.5806,5.6374,5.6374,0,0,0-2.012-4.6627,8.5063,8.5063,0,0,0-5.4475-1.62H148.47Z" fill="#9a9a9a"/><path d="M202.73,55.7488V68.9675h-6.3317V31.0455h13.8732c4.1226,0,7.558,1.3089,9.7341,3.5012A12.1467,12.1467,0,0,1,223.36,43.25a12.4769,12.4769,0,0,1-3.485,8.9324,13.3689,13.3689,0,0,1-9.5541,3.5664Zm0-5.595h6.7234A7.9188,7.9188,0,0,0,215,48.3379a6.4821,6.4821,0,0,0,1.9631-5.0062,6.2237,6.2237,0,0,0-1.979-4.94,8.0953,8.0953,0,0,0-5.53-1.7505H202.73Z" fill="#9a9a9a"/><path d="M247.0126,68.9675V31.0455h6.4461v16h17.2591v-16H277.18v37.922h-6.4626V52.6242H253.4587V68.9675Z" fill="#9a9a9a"/><path d="M303.1731,68.9675V31.0455h23.8692V36.657H309.57V47.0617h15.1981V52.64H309.57V63.3565h17.9138v5.611Z" fill="#9a9a9a"/><path d="M377.7419,31.0455H384.04V55.258a14.0507,14.0507,0,0,1-4.1386,10.3558,15.4759,15.4759,0,0,1-10.7649,3.8934,16.3355,16.3355,0,0,1-7.7214-1.7666,12.4859,12.4859,0,0,1-5.2192-4.99,14.7032,14.7032,0,0,1-1.8646-7.4763V31.0455h6.4131V55.2907a8.1562,8.1562,0,0,0,2.4049,6.135,8.52,8.52,0,0,0,6.1836,2.3394,7.9584,7.9584,0,0,0,8.4092-8.4744Z" fill="#9a9a9a"/><path d="M410.4089,60.0023A17.1813,17.1813,0,0,0,421.01,63.7651c3.9592,0,7.3946-1.505,7.3946-5.1369,0-2.83-2.225-4.2208-5.1206-5.1534-1.98-.6545-4.2207-1.2269-6.4131-1.8976a14.81,14.81,0,0,1-5.7584-3.1576,8.9046,8.9046,0,0,1-2.5034-6.6257c0-7.3454,5.7589-11.2881,12.9572-11.2881a21.5992,21.5992,0,0,1,6.7729,1.1125,19.5657,19.5657,0,0,1,5.9223,3.1573l-2.8467,4.45a16.1064,16.1064,0,0,0-4.5645-2.274,16.4918,16.4918,0,0,0-4.9242-.8182c-2.5683,0-4.6954.72-5.9878,2.3067a4.44,4.44,0,0,0,1.5053,6.773,23.6257,23.6257,0,0,0,4.9728,1.7834c2.5194.671,4.2371,1.1618,5.1373,1.4889a11.6575,11.6575,0,0,1,5.84,4.09,9.6488,9.6488,0,0,1,1.4888,5.4971,10.347,10.347,0,0,1-3.9916,8.605,15.9628,15.9628,0,0,1-9.62,2.83,21.4618,21.4618,0,0,1-13.7588-4.94Z" fill="#9a9a9a"/></svg>