<svg id="Layer_1" data-name="Layer 1" xmlns="http://www.w3.org/2000/svg" xmlns:xlink="http://www.w3.org/1999/xlink" viewBox="0 0 834.83594 169"><defs><linearGradient id="linear-gradient" x1="84.5" x2="84.5" y2="169" gradientUnits="userSpaceOnUse"><stop offset="0" stop-color="#528ba3" stop-opacity="0"/><stop offset="1" stop-color="#528ba3"/></linearGradient><linearGradient id="linear-gradient-2" x1="116.5" y1="169" x2="116.5" y2="0" xlink:href="#linear-gradient"/></defs><title>logoo5</title><path d="M239.81641,107.51514c-5.752-5.67188-9.12793-13.82813-9.15528-23.01123a32.45611,32.45611,0,0,1,6.10352-19.39161,31.65153,31.65153,0,0,1,6.88769-6.80615,32.25081,32.25081,0,0,1,19.1211-5.96875A31.418,31.418,0,0,1,288.6748,65.1123a32.39864,32.39864,0,0,1,6.02247,19.311A31.40922,31.40922,0,0,1,262.666,116.72461,31.58259,31.58259,0,0,1,239.81641,107.51514Zm33.76074-3.106a20.30043,20.30043,0,0,0,7.58887-8.15674,24.98752,24.98752,0,0,0,2.70117-11.72119,26.08345,26.08345,0,0,0-1.59375-9.15576,21.85573,21.85573,0,0,0-4.40235-7.23828A21.45936,21.45936,0,0,0,251.75391,64.626a20.30354,20.30354,0,0,0-7.58887,8.15673,24.79892,24.79892,0,0,0-2.75488,11.74854,25.29981,25.29981,0,0,0,1.62109,9.10156,21.53522,21.53522,0,0,0,4.40137,7.26514,21.29035,21.29035,0,0,0,26.14453,3.51123Z" fill="#9a9a9a"/><path d="M338.9834,115.8335V53.229h22.63281c6.58984,0,12.18067,2.05225,15.82715,5.50928A18.79243,18.79243,0,0,1,383.1416,72.6748a19.1393,19.1393,0,0,1-3.40234,11.31641,18.68281,18.68281,0,0,1-9.39942,6.96777L385.4375,115.8335H372.90625L359.40234,92.33643h-9.96679V115.8335Zm10.45215-32.76075h10.77636q5.83447,0,9.0752-2.67382a9.242,9.242,0,0,0,3.24023-7.562,9.30494,9.30494,0,0,0-3.32129-7.69775q-3.36327-2.67335-8.99414-2.67334H349.43555Z" fill="#9a9a9a"/><path d="M438.88379,94.01074V115.8335H428.43164V53.229H451.335c6.80567,0,12.47754,2.16065,16.06934,5.77979a20.04946,20.04946,0,0,1,5.53711,14.36816,20.59422,20.59422,0,0,1-5.75293,14.7461c-3.67285,3.67334-9.26368,5.88769-15.77246,5.88769Zm0-9.23633h11.10059q5.874,0,9.15625-2.998a10.70288,10.70288,0,0,0,3.24023-8.26465c0-3.51074-1.08008-6.23877-3.26758-8.15625s-5.21289-2.88965-9.1289-2.88965H438.88379Z" fill="#9a9a9a"/><path d="M515.98926,115.8335V53.229h10.6416V79.64258H555.124V53.229H565.793v62.6045H555.124v-26.981H526.63086v26.981Z" fill="#9a9a9a"/><path d="M614.07813,115.8335V53.229H653.4834v9.26368H624.63867V79.66992h25.09082v9.20947H624.63867v17.69043h29.57422v9.26368Z" fill="#9a9a9a"/><path d="M736.50391,53.229h10.39746V93.20068c0,6.99512-2.53809,13.01807-6.833,17.0962-4.32129,4.07812-10.55957,6.42773-17.77051,6.42773a26.97566,26.97566,0,0,1-12.74805-2.9165,20.61741,20.61741,0,0,1-8.61621-8.2378,24.27581,24.27581,0,0,1-3.07812-12.34277V53.229h10.58691V93.25488a13.467,13.467,0,0,0,3.96973,10.12793,14.067,14.067,0,0,0,10.209,3.86231A13.67063,13.67063,0,0,0,732.669,103.437c2.56543-2.51221,3.835-5.915,3.835-10.18213Z" fill="#9a9a9a"/><path d="M794.43164,101.0332a28.36547,28.36547,0,0,0,17.50195,6.21192c6.53516,0,12.207-2.48487,12.207-8.48047,0-4.67285-3.67286-6.96826-8.45313-8.50781-3.26758-1.08008-6.96777-2.02539-10.58691-3.13282a24.44573,24.44573,0,0,1-9.50684-5.21289c-2.51172-2.34961-4.13281-6.15771-4.13281-10.938,0-12.12646,9.50683-18.63574,21.39062-18.63574a35.65549,35.65549,0,0,1,11.18164,1.83692,32.30091,32.30091,0,0,1,9.77637,5.2124l-4.69922,7.34619a26.58891,26.58891,0,0,0-7.53515-3.75439,27.23423,27.23423,0,0,0-8.12989-1.3501c-4.24023,0-7.751,1.18847-9.88476,3.8081a7.20127,7.20127,0,0,0-1.62012,4.69922c0,2.78174,1.37695,4.94239,4.10547,6.48194a38.99521,38.99521,0,0,0,8.21,2.94384c4.15918,1.10743,6.99512,1.918,8.48047,2.458q6.76611,2.51148,9.6416,6.75195a15.92745,15.92745,0,0,1,2.458,9.07471c0,6.18457-2.48438,11.18115-6.58985,14.20606-4.10546,3.05224-9.58789,4.67236-15.88086,4.67236a35.43258,35.43258,0,0,1-22.71386-8.15625Z" fill="#9a9a9a"/><path d="M116.5,32a52.44971,52.44971,0,0,0-16,2.49164A52.50247,52.50247,0,1,1,32,84.5,84.5126,84.5126,0,0,1,100.5,1.53284,84.49769,84.49769,0,1,0,169,84.5,52.50006,52.50006,0,0,0,116.5,32Z" fill="url(#linear-gradient)"/><path d="M116.5,0A84.5,84.5,0,0,0,32,84.5a52.51585,52.51585,0,0,0,68.5,50.00836A52.50247,52.50247,0,1,1,169,84.5a84.5126,84.5126,0,0,1-68.5,82.96716A84.49809,84.49809,0,1,0,116.5,0Z" fill="url(#linear-gradient-2)"/></svg>