<svg id="Layer_1" data-name="Layer 1" xmlns="http://www.w3.org/2000/svg" xmlns:xlink="http://www.w3.org/1999/xlink" viewBox="0 0 833.30794 169"><defs><linearGradient id="linear-gradient" x1="84.5" x2="84.5" y2="169" gradientUnits="userSpaceOnUse"><stop offset="0" stop-color="#528ba3" stop-opacity="0"/><stop offset="1" stop-color="#528ba3"/></linearGradient><linearGradient id="linear-gradient-2" x1="116.5" y1="169" x2="116.5" y2="0" xlink:href="#linear-gradient"/></defs><title>logoo4</title><path d="M238.916,107.70166a32.36275,32.36275,0,0,1-9.33594-23.3125,33.62831,33.62831,0,0,1,2.53906-13.07568,30.73223,30.73223,0,0,1,6.90625-10.31885,31.13219,31.13219,0,0,1,10.40039-6.688,35.23428,35.23428,0,0,1,25.71485,0,31.16628,31.16628,0,0,1,10.3457,6.688,30.62092,30.62092,0,0,1,6.85254,10.31885,35.12012,35.12012,0,0,1,.02636,26.01465,30.8411,30.8411,0,0,1-6.85156,10.37353,31.47531,31.47531,0,0,1-10.373,6.76953,33.60484,33.60484,0,0,1-12.93946,2.48438C252.91992,116.92822,244.70313,113.54346,238.916,107.70166Zm23.28515-1.80176a19.33333,19.33333,0,0,0,10.21-2.75732,18.88206,18.88206,0,0,0,7.043-7.64307,25.52668,25.52668,0,0,0,0-22.19336,19.13583,19.13583,0,0,0-7.07031-7.64355,20.48026,20.48026,0,0,0-20.33691,0,18.85989,18.85989,0,0,0-7.07032,7.61621,25.45457,25.45457,0,0,0-.02734,22.2207,18.7597,18.7597,0,0,0,7.07031,7.64307A19.16784,19.16784,0,0,0,262.20117,105.8999Z" fill="#9a9a9a"/><path d="M337.51465,116.05469V52.77783h23.23047c6.85156,0,12.61133,2.102,16.43359,5.62354a19.22147,19.22147,0,0,1,5.9502,14.35888,19.81758,19.81758,0,0,1-3.24805,11.27393,19.30867,19.30867,0,0,1-9.06348,7.1792l15.09668,24.84131H371.03613L358.01465,93.01514h-8.05274v23.03955Zm12.44726-33.93115h9.5c6.96094,0,11.02832-3.33057,11.02832-9.19971a8.34481,8.34481,0,0,0-2.97558-6.90625,12.62184,12.62184,0,0,0-8.05274-2.375h-9.5Z" fill="#9a9a9a"/><path d="M439.49544,94.68018v21.37451H427.04818V52.77783h23.50293c7.07031,0,12.93945,2.18408,16.707,5.86914a20.29066,20.29066,0,0,1,5.81445,14.82276,21.01484,21.01484,0,0,1-6.0332,15.23242c-3.82129,3.73974-9.6084,5.978-16.40625,5.978Zm0-10.91895h9.88184c3.52148,0,6.252-.90088,8.2168-2.70264a9.58249,9.58249,0,0,0,2.94824-7.4248,9.36676,9.36676,0,0,0-2.94824-7.398c-1.96485-1.71973-4.69532-2.59326-8.2168-2.59326h-9.88184Z" fill="#9a9a9a"/><path d="M515.98958,116.05469V52.77783h12.666V78.62939h25.87793V52.77783h12.69433v63.27686H554.53353V89.63037H528.6556v26.42432Z" fill="#9a9a9a"/><path d="M610.32389,116.05469V52.77783h40.67383V63.752H622.88053V78.68359h24.43164V89.63037H622.88053v15.45068h28.82715v10.97364Z" fill="#9a9a9a"/><path d="M734.10189,52.77783H746.4681V92.93311a24.71574,24.71574,0,0,1-3.167,12.61181A21.4803,21.4803,0,0,1,734.429,113.98a27.72827,27.72827,0,0,1-13.0752,2.97559c-7.34277,0-13.73144-2.40235-18.07129-6.55176-4.36816-4.14893-6.90625-10.31836-6.90625-17.44336V52.77783h12.584v40.21a12.2332,12.2332,0,0,0,3.60351,9.19971A12.601,12.601,0,0,0,721.763,105.709a12.05662,12.05662,0,0,0,8.89941-3.43994c2.293-2.26562,3.43946-5.37744,3.43946-9.28125Z" fill="#9a9a9a"/><path d="M792.19661,99.43018c5.70508,4.17675,11.57422,6.25146,17.55274,6.25146a14.75691,14.75691,0,0,0,7.80762-1.85644,6.00237,6.00237,0,0,0,3.00195-5.45948c0-2.53906-1.30957-4.50439-3.93066-5.95117a39.27247,39.27247,0,0,0-7.94336-2.75684c-4.17676-1.11962-7.09766-1.99267-8.7627-2.64794-4.53125-1.77442-7.69824-4.20411-9.47266-7.31592A16.62894,16.62894,0,0,1,788.43,71.25879c0-6.22412,2.45606-11.32861,6.52344-14.49512,4.04-3.167,9.5-4.88672,15.64258-4.88672a35.62982,35.62982,0,0,1,11.6289,1.96582,35.12571,35.12571,0,0,1,10.127,5.48682l-5.51367,8.544a28.75782,28.75782,0,0,0-7.64356-3.71241,27.02261,27.02261,0,0,0-7.88965-1.28271c-5.84179,0-10.40039,2.53857-10.40039,7.39746,0,2.48437,1.31055,4.44971,3.90332,5.8418a37.83325,37.83325,0,0,0,7.94434,2.648,89.61049,89.61049,0,0,1,8.81738,2.56591q6.87891,2.57959,9.63574,7.28858a17.20518,17.20518,0,0,1,2.10254,8.76269c0,6.415-2.53906,11.57422-6.71582,14.74121-4.17676,3.16651-9.77246,4.83155-16.24219,4.83155a36.7755,36.7755,0,0,1-23.749-8.73536Z" fill="#9a9a9a"/><path d="M116.5,32a52.44971,52.44971,0,0,0-16,2.49164A52.50247,52.50247,0,1,1,32,84.5,84.5126,84.5126,0,0,1,100.5,1.53284,84.49769,84.49769,0,1,0,169,84.5,52.50006,52.50006,0,0,0,116.5,32Z" fill="url(#linear-gradient)"/><path d="M116.5,0A84.5,84.5,0,0,0,32,84.5a52.51585,52.51585,0,0,0,68.5,50.00836A52.50247,52.50247,0,1,1,169,84.5a84.5126,84.5126,0,0,1-68.5,82.96716A84.49809,84.49809,0,1,0,116.5,0Z" fill="url(#linear-gradient-2)"/></svg>