<svg id="Layer_1" data-name="Layer 1" xmlns="http://www.w3.org/2000/svg" xmlns:xlink="http://www.w3.org/1999/xlink" viewBox="0 0 974.8163 100"><defs><linearGradient id="linear-gradient" x1="50" x2="50" y2="100" gradientUnits="userSpaceOnUse"><stop offset="0" stop-color="#fff" stop-opacity="0"/><stop offset="1" stop-color="#fff"/></linearGradient><linearGradient id="linear-gradient-2" x1="68.9349" y1="100" x2="68.9349" y2="0" xlink:href="#linear-gradient"/></defs><title>logo2</title><path d="M68.9349,18.9349a31.0336,31.0336,0,0,0-9.4674,1.4744A31.0665,31.0665,0,1,1,18.9349,50,50.0075,50.0075,0,0,1,59.4675.907,49.9986,49.9986,0,1,0,100,50,31.0651,31.0651,0,0,0,68.9349,18.9349Z" fill="url(#linear-gradient)"/><path d="M68.9349,0a50,50,0,0,0-50,50A31.0744,31.0744,0,0,0,59.4675,79.5907,31.0665,31.0665,0,1,1,100,50,50.0074,50.0074,0,0,1,59.4675,99.093,49.9989,49.9989,0,1,0,68.9349,0Z" fill="url(#linear-gradient-2)"/><path d="M182.35,98.6162V1.3853h35.1515c10.2345,0,18.9173,3.1882,24.58,8.5573s8.8507,12.919,8.8507,21.6441a29.7271,29.7271,0,0,1-5.2844,17.575A29.01,29.01,0,0,1,231.05,59.9838l23.4469,38.6324H235.0349L214.0623,62.1231H198.5842V98.6162Zm16.2342-50.8807h16.7364q9.0585,0,14.0926-4.1523c3.3561-2.7685,5.0333-6.67,5.0333-11.7446q0-7.8018-5.1588-11.9549-5.2224-4.1527-13.9671-4.1523H198.5842Z" fill="#fff"/><path d="M341.9785,64.7237V98.6162H325.7442V1.3853h35.5705c10.57,0,19.3786,3.3561,24.9579,8.977,5.5369,5.6209,8.6,13.38,8.6,22.3149,0,9.1864-3.2729,17.1976-8.9354,22.9025-5.7048,5.7048-14.3876,9.144-24.4966,9.144Zm0-14.3452H359.217q9.1243,0,14.22-4.656,5.0342-4.6563,5.0333-12.8359c0-5.4522-1.6772-9.6892-5.0741-12.6672s-8.096-4.488-14.1789-4.488H341.9785Z" fill="#fff"/><path d="M466.2,98.6162V1.3853h16.5277V42.4088h44.2517V1.3853h16.57V98.6162h-16.57V56.7125H482.7275V98.6162Z" fill="#fff"/><path d="M623.0137,98.6162V1.3853h61.2V15.7729H639.4158V42.45h38.9674V56.7541H639.4158V84.2286h45.9305V98.6162Z" fill="#fff"/><path d="M817.6243,1.3853h16.148v62.08c0,10.8644-3.9428,20.2179-10.611,26.5519C816.4492,96.3513,806.7591,100,795.56,100a41.8844,41.8844,0,0,1-19.7975-4.53A32.0151,32.0151,0,0,1,762.38,82.6768,37.7033,37.7033,0,0,1,757.6,63.5078V1.3853h16.4429v62.164q0,9.7528,6.1661,15.73c4.1108,3.9844,9.3951,5.9982,15.8546,5.9982q9.6282,0,15.6036-5.9143c3.9852-3.9012,5.9574-9.1864,5.9574-15.8138Z" fill="#fff"/><path d="M912.0647,75.63q12.6476,9.627,27.1811,9.6477c10.1514,0,18.96-3.8589,18.96-13.1708,0-7.2566-5.7048-10.8221-13.1292-13.2132-5.0757-1.6781-10.8213-3.1459-16.443-4.8655a37.9775,37.9775,0,0,1-14.7641-8.0959c-3.9021-3.65-6.4188-9.5638-6.4188-16.9882C907.45,10.1105,922.2161.0015,940.672.0015a55.3745,55.3745,0,0,1,17.3656,2.8524,50.1574,50.1574,0,0,1,15.1846,8.0952l-7.2989,11.41a41.29,41.29,0,0,0-11.7031-5.83,42.2763,42.2763,0,0,0-12.6256-2.0977c-6.585,0-12.0388,1.8459-15.3525,5.9143a11.1865,11.1865,0,0,0-2.5167,7.2989c0,4.32,2.14,7.6762,6.3764,10.0666,2.5166,1.4262,6.7529,2.9363,12.7511,4.572,6.46,1.72,10.8637,2.9787,13.1717,3.8174Q966.53,50.0007,970.999,56.5862c2.559,3.8173,3.8173,8.5149,3.8173,14.0942,0,9.6053-3.86,17.3655-10.2345,22.063C958.2054,97.4833,949.6906,100,939.9174,100q-19.5057,0-35.2771-12.6672Z" fill="#fff"/></svg>