<svg id="Layer_1" data-name="Layer 1" xmlns="http://www.w3.org/2000/svg" xmlns:xlink="http://www.w3.org/1999/xlink" viewBox="0 0 434.8768 100"><defs><linearGradient id="linear-gradient" x1="50" x2="50" y2="100" gradientUnits="userSpaceOnUse"><stop offset="0" stop-color="#fff" stop-opacity="0"/><stop offset="1" stop-color="#fff"/></linearGradient><linearGradient id="linear-gradient-2" x1="68.9349" y1="100" x2="68.9349" y2="0" xlink:href="#linear-gradient"/></defs><title>logo3</title><path d="M68.9349,18.9349a31.0336,31.0336,0,0,0-9.4674,1.4744A31.0665,31.0665,0,1,1,18.9349,50,50.0075,50.0075,0,0,1,59.4675.907,49.9986,49.9986,0,1,0,100,50,31.0651,31.0651,0,0,0,68.9349,18.9349Z" fill="url(#linear-gradient)"/><path d="M68.9349,0a50,50,0,0,0-50,50A31.0744,31.0744,0,0,0,59.4675,79.5907,31.0665,31.0665,0,1,1,100,50,50.0074,50.0074,0,0,1,59.4675,99.093,49.9989,49.9989,0,1,0,68.9349,0Z" fill="url(#linear-gradient-2)"/><path d="M142.1322,68.961V31.039h13.71a13.81,13.81,0,0,1,9.5866,3.3375,11.3839,11.3839,0,0,1,3.4519,8.4417,11.5945,11.5945,0,0,1-2.061,6.8546,11.3145,11.3145,0,0,1-5.6934,4.2208l9.1447,15.0674h-7.59l-8.18-14.233h-6.0367V68.961Zm6.3317-19.8445h6.5275a8.4032,8.4032,0,0,0,5.4964-1.62,5.5968,5.5968,0,0,0,1.9631-4.5806,5.6372,5.6372,0,0,0-2.012-4.6627,8.5058,8.5058,0,0,0-5.4475-1.62h-6.5275Z" fill="#9a9a9a"/><path d="M202.7239,55.7423V68.961h-6.3317V31.039h13.8732c4.1226,0,7.558,1.3089,9.7341,3.5012a12.1462,12.1462,0,0,1,3.354,8.7033,12.4766,12.4766,0,0,1-3.485,8.9324,13.3691,13.3691,0,0,1-9.5541,3.5664Zm0-5.595h6.7234a7.9193,7.9193,0,0,0,5.5459-1.8159,6.482,6.482,0,0,0,1.9631-5.0062,6.2233,6.2233,0,0,0-1.979-4.94,8.0948,8.0948,0,0,0-5.53-1.7505h-6.7234Z" fill="#9a9a9a"/><path d="M247.0061,68.961V31.039h6.4461v16h17.2591v-16h6.4626V68.961h-6.4626V52.6177H253.4522V68.961Z" fill="#9a9a9a"/><path d="M303.1666,68.961V31.039h23.8692v5.6115h-17.472V47.0552h15.1981v5.5787H309.5638V63.35h17.9138V68.961Z" fill="#9a9a9a"/><path d="M377.7354,31.039h6.2981V55.2515a14.0506,14.0506,0,0,1-4.1386,10.3558A15.4763,15.4763,0,0,1,369.13,69.5007a16.3364,16.3364,0,0,1-7.7214-1.7666,12.4863,12.4863,0,0,1-5.2192-4.99,14.7044,14.7044,0,0,1-1.8646-7.4763V31.039h6.4131V55.2842a8.1567,8.1567,0,0,0,2.4049,6.135,8.5206,8.5206,0,0,0,6.1836,2.3394,7.958,7.958,0,0,0,8.4092-8.4744Z" fill="#9a9a9a"/><path d="M410.4024,59.9958a17.1816,17.1816,0,0,0,10.6012,3.7628c3.9592,0,7.3946-1.505,7.3946-5.1369,0-2.83-2.225-4.2208-5.1206-5.1534-1.98-.6545-4.2206-1.2269-6.4131-1.8976a14.8117,14.8117,0,0,1-5.7584-3.1576,8.9045,8.9045,0,0,1-2.5034-6.6257c0-7.3454,5.7589-11.2881,12.9572-11.2881a21.5966,21.5966,0,0,1,6.7729,1.1125,19.5625,19.5625,0,0,1,5.9223,3.1573l-2.8467,4.45a16.1052,16.1052,0,0,0-4.5645-2.274,16.4893,16.4893,0,0,0-4.9242-.8182c-2.5683,0-4.6954.72-5.9878,2.3067a4.44,4.44,0,0,0,1.5053,6.773A23.6356,23.6356,0,0,0,422.41,46.99c2.5194.671,4.2371,1.1618,5.1373,1.4889a11.6569,11.6569,0,0,1,5.84,4.09,9.6483,9.6483,0,0,1,1.4888,5.4971,10.347,10.347,0,0,1-3.9916,8.605,15.9635,15.9635,0,0,1-9.62,2.83,21.4625,21.4625,0,0,1-13.7588-4.94Z" fill="#9a9a9a"/></svg>